<svg height="460" viewBox="0 0 460 460" width="460" xmlns="http://www.w3.org/2000/svg"><g fill="none" fill-rule="evenodd"><path d="m0 0h460v460h-460z" fill="#000"/><g fill="#fff" fill-rule="nonzero"><path d="m229.995 270.552c21.565 0 39.047-17.482 39.047-39.046 0-21.565-17.482-39.047-39.047-39.047s-39.047 17.482-39.047 39.047c0 21.564 17.482 39.046 39.047 39.046z"/><path d="m434.99 230.505c0-30.798-28.553-57.838-73.994-75.58 7.346-48.2715-1.806-86.5372-28.504-101.93617-23.843-13.76394-56.861-7.0283941-92.98 18.98647-3.196 2.2939-6.369 4.7344-9.542 7.2724-3.148-2.538-6.32-4.9785-9.493-7.2724-36.118-26.0148641-69.137-32.77481-92.98-18.98647-26.6733 15.39897-35.8249 53.64027-28.4548 101.86317-45.4893 17.766-74.0422 44.83-74.0422 75.653 0 30.798 28.5528 57.837 73.9934 75.579-7.3457 48.272 1.8059 86.537 28.5036 101.936 8.078 4.662 17.23 6.98 27.187 6.98 19.401 0 41.926-8.785 65.793-25.966 3.197-2.294 6.37-4.734 9.542-7.272 3.148 2.538 6.321 4.978 9.493 7.272 23.868 17.205 46.393 25.966 65.794 25.966 9.957 0 19.109-2.318 27.186-6.98 23.843-13.764 34.508-45.733 30.042-90.027-.391-3.904-.903-7.858-1.538-11.884 45.465-17.742 73.994-44.782 73.994-75.604zm-184.056-142.6914c20.304-14.6181 39.193-22.2322 54.372-22.2322 6.565 0 12.422 1.4154 17.425 4.2951 17.473 10.1033 24.941 39.071 19.596 78.5565-17.571-5.3929-37.021-9.5172-57.935-12.1528-12.52-16.4728-25.795-31.3349-39.389-44.0251 1.977-1.513 3.954-3.0261 5.931-4.4415zm-113.675-17.9371c5.003-2.8797 10.86-4.2951 17.425-4.2951 15.179 0 34.068 7.5897 54.372 22.2322 1.977 1.4154 3.954 2.904 5.93 4.4415-13.593 12.6902-26.844 27.5279-39.364 44.0007-20.89 2.6356-40.364 6.7843-57.935 12.1532-5.3446-39.4615 2.0987-68.4292 19.572-78.5325zm-92.7357 160.6285c0-20.183 21.3781-41.146 58.2527-56.252 4.1243 17.888 10.2742 36.801 18.4008 56.203-8.1754 19.425-14.3253 38.363-18.4496 56.276-36.8258-15.106-58.2039-36.045-58.2039-56.227zm164.5327 142.691c-29.09 20.938-55.251 27.479-71.797 17.937-17.4733-10.104-24.9409-39.071-19.5964-78.557 17.5714 5.393 37.0214 9.517 57.9354 12.153 12.519 16.473 25.795 31.335 39.388 44.025-1.976 1.538-3.953 3.026-5.93 4.442zm20.939-17.156c-24.404-22.355-47.857-52.225-67.648-86.489-5.296-9.151-16.003-32.155-20.347-41.062-3.465 8.297-6.888 15.909-9.573 24.011 2.196 4.075 10.665 22.713 13.007 26.788 4.637 8.029 9.494 15.839 14.497 23.404-14.033-2.465-27.016-5.637-38.8275-9.371 6.7115-30.31 20.1095-65.257 41.2435-101.863 5.198-9.005 16.491-29.112 22.153-37.458-8.932 1.147-16.105.767-24.5 2.5-2.44 3.953-12.223 21.145-14.566 25.221-4.685 8.102-8.98 16.204-13.007 24.257-4.881-13.397-8.6146-26.234-11.2746-38.338 29.6026-9.347 66.5746-15.229 108.8426-15.229 10.567 0 32.635-.214 42.495.494-5.442-7.1506-10.11-13.6231-15.796-20.017-4.612-.1464-21.989 0-26.699 0-9.323 0-18.45.3173-27.406.8542 8.883-10.567 18.083-20.2311 27.406-28.7725 24.38 22.3542 47.856 52.2253 67.648 86.4883 5.198 9.005 16.43 29.968 20.847 39.047 3.49-8.298 6.791-15.865 9.5-24.016-2.197-4.1-11.092-20.742-13.435-24.793-4.637-8.029-9.493-15.838-14.496-23.379 14.033 2.465 27.016 5.637 38.827 9.371-6.711 30.31-20.109 65.257-41.243 101.863-5.198 9.005-19.992 29.627-25.653 37.973 8.932-1.147 18.605-2.861 27-4.594 2.44-3.954 13.222-19.566 15.565-23.642 4.661-8.053 8.957-16.106 12.934-24.135 4.735 13.032 8.493 25.844 11.226 38.241-29.577 9.347-66.501 15.204-108.72 15.204-10.567 0-35.136-1.39-44.995-2.098 5.442 7.15 11.304 14.595 16.99 20.989 4.612.146 23.295.632 28.005.632 9.322 0 18.449-.317 27.406-.854-8.908 10.567-18.084 20.231-27.406 28.773zm92.736 35.093c-16.546 9.566-42.732 3.026-71.797-17.937-1.977-1.416-3.954-2.904-5.931-4.442 13.594-12.69 26.845-27.528 39.364-44.001 20.866-2.635 40.292-6.76 57.838-12.128.342 2.464.683 4.929.927 7.345 3.588 35.679-3.855 61.596-20.401 71.163zm34.531-104.377c-4.197-18.157-10.42-37.07-18.449-56.178 8.175-19.426 14.325-38.363 18.449-56.276 36.826 15.106 58.204 36.02 58.204 56.203 0 20.182-21.353 41.121-58.204 56.251z"/></g></g></svg>